PathFileType	4	(X/Y/Z)	E:\Qualisys_Data\Carbon_Farble_Plate\Data\Amateur_Runner\S1\T3\S1T3V22_c3d.trc
DataRate	CameraRate	NumFrames	NumMarkers	Units	OrigDataRate	OrigDataStartFrame	OrigNumFrames
200.000000	200.000000	4	39	mm	200.000000	148	297
Frame#	Time	LSHO			RSHO			LICST			RICST			LASIS			LHEEL			RASIS			LTROC			RTROC			SACR			LTH1			LSK4			LTH2			LTH3			RHM5			LSK2			LTH4			RTH1			LTOE			RTH2			RTH3			RTH4			LLEP			RLEP			LSK1			LSK3			RSK1			LHM5			RSK2			LFT1			RSK3			RSK4			LLME			RLME			RTOE			RHEEL			RFT1			RFT2			LFT2			
		X1	Y1	Z1	X2	Y2	Z2	X3	Y3	Z3	X4	Y4	Z4	X5	Y5	Z5	X6	Y6	Z6	X7	Y7	Z7	X8	Y8	Z8	X9	Y9	Z9	X10	Y10	Z10	X11	Y11	Z11	X12	Y12	Z12	X13	Y13	Z13	X14	Y14	Z14	X15	Y15	Z15	X16	Y16	Z16	X17	Y17	Z17	X18	Y18	Z18	X19	Y19	Z19	X20	Y20	Z20	X21	Y21	Z21	X22	Y22	Z22	X23	Y23	Z23	X24	Y24	Z24	X25	Y25	Z25	X26	Y26	Z26	X27	Y27	Z27	X28	Y28	Z28	X29	Y29	Z29	X30	Y30	Z30	X31	Y31	Z31	X32	Y32	Z32	X33	Y33	Z33	X34	Y34	Z34	X35	Y35	Z35	X36	Y36	Z36	X37	Y37	Z37	X38	Y38	Z38	X39	Y39	Z39	

149	0.74	-19.02084159851074	1531.127807617188	-510.9114379882812	-108.0933380126953	1509.34716796875	-203.7035369873047	-66.8688735961914	1044.616943359375	-519.7171020507812	-74.08475494384766	1069.000854492188	-222.6636352539062	-23.85372161865234	1005.348571777344	-492.9012451171875	-626.884033203125	482.5707702636719	-386.7275695800781	-31.4501953125	1024.695434570312	-229.2725067138672	-145.3473205566406	930.15673828125	-537.7041015625	-130.4203338623047	925.3241577148438	-196.6660003662109	-189.0954895019531	1072.10009765625	-369.364013671875	-55.5527458190918	753.8370971679688	-495.6019897460938	-493.6927795410156	507.3839111328125	-420.3365783691406	-132.25439453125	764.01025390625	-526.4749145507812	-79.07592010498047	652.6566162109375	-478.3426818847656	322.3844299316406	160.2308959960938	-225.7787322998047	-402.4789123535156	526.78857421875	-464.4192199707031	-159.0093078613281	668.9771728515625	-501.736328125	29.54007720947266	825.53515625	-213.1608581542969	-616.5703125	233.4743347167969	-360.5873413085938	-42.89799499511719	799.3663330078125	-185.9566650390625	63.38867568969727	729.8946533203125	-214.9165649414062	-13.26054954528809	703.7400512695312	-198.6083221435547	-183.8863525390625	521.15234375	-465.5440979003906	87.63316345214844	570.7665405273438	-244.1544342041016	-385.0464172363281	443.3003845214844	-453.4912414550781	-484.843505859375	430.062255859375	-442.4685974121094	133.4856719970703	387.5689086914062	-223.5272064208984	-652.2146606445312	291.7286682128906	-424.57275390625	56.27435302734375	367.4139099121094	-238.2177276611328	-649.2353515625	474.9687194824219	-353.3351440429688	163.2124938964844	292.5636901855469	-237.1524658203125	88.28995513916016	273.3695068359375	-261.6898803710938	-604.6493530273438	429.3684692382812	-430.6554565429688	176.2360076904297	153.0159301757812	-241.2056274414062	362.69140625	201.3837890625	-296.6588745117188	138.0167694091797	84.40608978271484	-286.1166687011719	161.1882476806641	66.86522674560547	-319.4438171386719	154.4327239990234	62.44008255004883	-266.8840026855469	-662.2672729492188	472.2029113769531	-404.2777099609375
150	0.745	1.861713051795959	1528.025268554688	-510.0752868652344	-86.83476257324219	1505.46142578125	-202.9740447998047	-46.31859970092773	1041.022338867188	-519.8529663085938	-53.88879013061523	1065.969970703125	-222.7271575927734	-3.230050563812256	1002.219848632812	-493.3522338867188	-599.625	491.4311828613281	-380.2388305664062	-12.24987697601318	1021.343627929688	-229.7201690673828	-123.8104705810547	925.8721313476562	-538.2044067382812	-110.0038452148438	922.0778198242188	-196.7729187011719	-168.8318481445312	1067.98876953125	-369.5923156738281	-31.60144424438477	750.6991577148438	-496.48095703125	-464.9841613769531	509.8872985839844	-419.8446655273438	-108.6262588500977	759.9285278320312	-527.1995239257812	-53.43955230712891	648.8756713867188	-479.4203186035156	335.5048522949219	153.5786285400391	-227.1844482421875	-372.309814453125	526.6104125976562	-462.5997619628906	-133.7419738769531	664.5101928710938	-502.3527526855469	50.12739181518555	822.6322021484375	-211.8074493408203	-593.6923217773438	238.9527587890625	-362.0797119140625	-22.83205604553223	796.4373779296875	-185.9829559326172	83.83819580078125	726.55810546875	-213.8636169433594	6.784332752227783	700.7987670898438	-199.87744140625	-154.8609771728516	515.7866821289062	-466.8897399902344	105.1198120117188	566.3147583007812	-244.6619720458984	-357.9485778808594	443.6407775878906	-454.2925720214844	-458.0040588378906	432.9635925292969	-443.1902160644531	150.1754913330078	382.0177307128906	-225.1087341308594	-628.0225219726562	298.6317138671875	-425.4898986816406	72.38227081298828	362.7792053222656	-239.0809936523438	-622.4251708984375	483.6980895996094	-351.863037109375	178.5080413818359	286.613525390625	-238.8631286621094	103.3082427978516	268.1900634765625	-262.7440185546875	-577.5255737304688	435.6448669433594	-430.6730041503906	189.7401123046875	147.3082427978516	-242.4442901611328	376.1505432128906	194.8434448242188	-297.7300720214844	150.0764465332031	77.73323822021484	-287.4541931152344	173.7586669921875	61.33755874633789	-321.1345825195312	166.1116790771484	56.02967071533203	-268.1379089355469	-633.5518798828125	479.3968200683594	-403.7641906738281
151	0.75	22.48434638977051	1524.66943359375	-509.59619140625	-65.2530746459961	1500.853393554688	-202.4228820800781	-25.88663101196289	1037.34375	-520.1253662109375	-33.56210327148438	1062.555908203125	-222.6888122558594	17.22794914245605	998.6072387695312	-493.0799865722656	-573.0545043945312	496.7853088378906	-381.6878356933594	7.529129981994629	1017.758544921875	-229.4642486572266	-102.3748397827148	921.41845703125	-538.8251953125	-89.9710693359375	918.7941284179688	-196.9262542724609	-148.5101776123047	1064.058837890625	-369.8330993652344	-7.447576999664307	747.3576049804688	-497.7781066894531	-435.2918090820312	512.1868286132812	-419.5281372070312	-85.0814208984375	755.5205688476562	-527.25439453125	-27.17355346679688	644.36279296875	-481.2786560058594	347.4078369140625	145.9650726318359	-228.714599609375	-342.2022094726562	527.0772705078125	-462.57763671875	-108.3110809326172	659.6539916992188	-503.589599609375	70.51935577392578	820.1277465820312	-210.2499694824219	-569.6726684570312	244.67041015625	-364.1002502441406	-2.954601526260376	793.26416015625	-186.3712310791016	104.2323989868164	723.8015747070312	-213.2694244384766	26.53638458251953	698.1012573242188	-201.0789489746094	-126.9170913696289	511.5531616210938	-468.3876647949219	122.6108703613281	561.0387573242188	-245.2572174072266	-330.2798461914062	443.2195434570312	-455.3499755859375	-430.750244140625	435.4955749511719	-443.8912963867188	166.2778930664062	376.6773376464844	-225.9427032470703	-603.89697265625	305.9420776367188	-426.3757629394531	88.16706085205078	358.2463073730469	-239.0784606933594	-592.8126220703125	490.0118713378906	-351.2016296386719	193.0039978027344	280.4350891113281	-240.4514007568359	117.3796997070312	263.1153564453125	-263.4241638183594	-549.8663330078125	441.5894165039062	-430.9521484375	201.966064453125	140.6186370849609	-243.9518127441406	388.2651977539062	187.5330657958984	-298.9043273925781	161.8399658203125	71.64936065673828	-288.6702270507812	185.2221527099609	55.82775497436523	-322.6888122558594	177.6573028564453	50.11358642578125	-269.2172546386719	-604.5803833007812	485.8970031738281	-403.3950805664062
152	0.755	43.01904296875	1520.9873046875	-508.7708435058594	-43.51938629150391	1496.297485351562	-201.2662506103516	-5.583528995513916	1033.151611328125	-519.949951171875	-13.69748306274414	1059.055419921875	-222.6237945556641	37.65048217773438	994.788818359375	-493.02685546875	-542.4501953125	501.21875	-384.2153625488281	27.97685432434082	1014.452392578125	-229.4459533691406	-81.06964111328125	916.8060913085938	-538.7445678710938	-70.14605712890625	915.324462890625	-197.4225463867188	-127.8293838500977	1059.472778320312	-369.6795043945312	16.85357284545898	744.0128173828125	-499.0821228027344	-405.0780944824219	513.8054809570312	-419.4296569824219	-61.3345832824707	751.02734375	-527.9830932617188	0.0899699702858924	642.3055419921875	-484.29541015625	358.93115234375	137.3204498291016	-230.4944915771484	-312.0868835449219	526.8464965820312	-462.248046875	-82.71073913574219	654.6306762695312	-503.9074096679688	91.1657257080078	817.8671264648438	-209.0682373046875	-545.3267822265625	249.8204803466797	-365.6457824707031	17.22907447814941	790.0485229492188	-186.4608612060547	124.5999526977539	721.312255859375	-213.2880706787109	46.91334533691406	695.4027709960938	-201.3352508544922	-97.79680633544922	506.9281311035156	-470.2557983398438	140.2572479248047	556.2572631835938	-245.4286651611328	-302.2472229003906	443.1753540039062	-456.3772888183594	-402.449951171875	437.5769653320312	-444.7943115234375	182.1033782958984	370.9176635742188	-226.8665008544922	-578.234619140625	312.2779235839844	-427.8094787597656	103.4412841796875	353.7276611328125	-239.5814361572266	-563.1544189453125	495.4806823730469	-350.7678833007812	207.1559295654297	274.4943237304688	-241.5312042236328	130.8211212158203	258.4832153320312	-263.8029479980469	-521.4891967773438	446.7074584960938	-430.9806518554688	213.2794342041016	134.1144104003906	-244.7977752685547	399.3919372558594	179.5502166748047	-300.4170227050781	172.6297607421875	66.57552337646484	-290.25146484375	194.996826171875	49.84952545166016	-324.3397521972656	188.8734436035156	44.44340133666992	-271.7005310058594	-574.8135986328125	491.528076171875	-402.7499084472656
